# xmcd
#
# Track frame offsets: 
#        150
#        1058
#        3308
#        70283
#        92713
#        94963
#        119458
#        168447
#        195606
#        197856
#        237414
#        239664
#        276494
#        295777
#        328679
#        331316
#
# Disc length: 4421 seconds
#
# Revision: 1
# Processed by: cddbd v1.5.1PL2 Copyright (c) Steve Scherf et al.
# Submitted via: ExactAudioCopy v0.90b4
#
DISCID=ea114310
DTITLE=Fredrik Lindström and Hasse Pihl  - Vem är Björn och vem är Benny
DTITLE=och andra intressanta mysterier
DYEAR=2005
DGENRE=Audio book
TTITLE0=CD-info
TTITLE1=Firehouse Five Plus Two - Brass Bell
TTITLE2=Vem är Björn och vem är Benny?
TTITLE3=Varför räknar unga familjer alltid upp samtliga familjemedlemm
TTITLE3=ar (inklusive husdjur) på telefonsvararen?
TTITLE4=Firehouse Five Plus Two - San Antonio Rose
TTITLE5=Varför sitter gamla kärringar med hatten påinomhus?
TTITLE6=Varför fastnar låtarsom man inte gillar så lätt i huvudet?
TTITLE7=Varför åker svenskar just till Spanien på semester?
TTITLE8=Firehouse Five Plus Two - Lonesome Mama Blues
TTITLE9=Varför är det så svårt att vinna på spel och lotteri?
TTITLE10=Vad sysslar de egentligen med på Vitamininstitutet i Schweiz?
TTITLE11=Hur länge har man egentligen talat svenska i Sverige?
TTITLE12=Vem är det egentligen som hänger på krogen jämt?
TTITLE13=Firehouse Five Plus Two - Mississippi Rag
TTITLE14=Data-track
TTITLE15=Data-track
EXTD=
EXTT0=
EXTT1=
EXTT2=
EXTT3=
EXTT4=
EXTT5=
EXTT6=
EXTT7=
EXTT8=
EXTT9=
EXTT10=
EXTT11=
EXTT12=
EXTT13=
EXTT14=
EXTT15=
PLAYORDER=
